<?xml version="1.0" encoding="utf-8" standalone="no"?><!DOCTYPE svg PUBLIC "-//W3C//DTD SVG 20010904//EN" "http://www.w3.org/TR/2001/REC-SVG-20010904/DTD/svg10.dtd"><svg xmlns="http://www.w3.org/2000/svg" width="1018" height="381" xmlns:xlink="http://www.w3.org/1999/xlink"><source><![CDATA[start->main.tf: write config files
main.tf -> provider.tf: config provider
provider.tf -> initializing: terrafrom init
initializing -> create vm: terrfrom apply
create vm -> delete vm: terrafrom destroy
delete vm -> end: 

]]></source><desc></desc><defs><marker viewBox="0 0 5 5" markerWidth="5" markerHeight="5" orient="auto" refX="5" refY="2.5" id="markerArrowBlock"><path d="M 0 0 L 5 2.5 L 0 5 z"></path></marker><marker viewBox="0 0 9.6 16" markerWidth="4" markerHeight="16" orient="auto" refX="9.6" refY="8" id="markerArrowOpen"><path d="M 9.6,8 1.92,16 0,13.7 5.76,8 0,2.286 1.92,0 9.6,8 z"></path></marker></defs><g class="title"></g><g class="actor"><path d="M10,20C34.8,17.3 67.1,22.7 78.0,20.0C79.7,35.3 76.2,33.3 78.0,64.0C20.9,66.7 29.9,61.3 10.0,64.0C11.8,46.8 8.2,34.5 10.0,20.0" stroke="#000000" fill="#ffffff" style="stroke-width: 2;"></path><text x="21" y="47.5" style="font-size: 16px; font-family: danielbd;"><tspan x="20">start</tspan></text></g><g class="actor"><path d="M10,317C53.7,319.7 61.7,314.3 78.0,317.0C76.2,333.5 79.7,344.8 78.0,361.0C61.0,358.3 27.9,363.7 10.0,361.0C8.2,324.0 11.8,351.2 10.0,317.0" stroke="#000000" fill="#ffffff" style="stroke-width: 2;"></path><text x="21" y="344.5" style="font-size: 16px; font-family: danielbd;"><tspan x="20">start</tspan></text></g><path d="M44.0,64.0C54.1,189.0 33.9,256.3 44.0,317.0" stroke="#000000" fill="none" style="stroke-width: 2;"></path><g class="actor"><path d="M168.46875,20C199.7,23.4 191.3,16.6 253.5,20.0C251.7,30.6 255.3,53.4 253.5,64.0C239.2,60.6 233.1,67.4 168.5,64.0C166.7,57.0 170.2,39.7 168.5,20.0" stroke="#000000" fill="#ffffff" style="stroke-width: 2;"></path><text x="179.46875" y="47.5" style="font-size: 16px; font-family: danielbd;"><tspan x="178.46875">main.tf</tspan></text></g><g class="actor"><path d="M168.46875,317C188.9,313.6 182.1,320.4 253.5,317.0C251.7,343.7 255.3,324.0 253.5,361.0C193.9,364.4 184.3,357.6 168.5,361.0C170.2,324.0 166.7,354.0 168.5,317.0" stroke="#000000" fill="#ffffff" style="stroke-width: 2;"></path><text x="179.46875" y="344.5" style="font-size: 16px; font-family: danielbd;"><tspan x="178.46875">main.tf</tspan></text></g><path d="M211.0,64.0C221.1,151.4 200.9,104.5 211.0,317.0" stroke="#000000" fill="none" style="stroke-width: 2;"></path><g class="actor"><path d="M304.4140625,20C353.9,15.1 346.3,24.9 426.4,20.0C428.1,42.0 424.6,57.0 426.4,64.0C406.9,59.1 397.1,68.9 304.4,64.0C306.2,53.4 302.7,37.3 304.4,20.0" stroke="#000000" fill="#ffffff" style="stroke-width: 2;"></path><text x="315.4140625" y="45.5" style="font-size: 16px; font-family: danielbd;"><tspan x="314.4140625">provider.tf</tspan></text></g><g class="actor"><path d="M304.4140625,317C338.8,321.9 366.3,312.1 426.4,317.0C428.1,338.9 424.6,350.4 426.4,361.0C385.9,356.1 394.1,365.9 304.4,361.0C306.2,350.0 302.7,324.0 304.4,317.0" stroke="#000000" fill="#ffffff" style="stroke-width: 2;"></path><text x="315.4140625" y="342.5" style="font-size: 16px; font-family: danielbd;"><tspan x="314.4140625">provider.tf</tspan></text></g><path d="M365.4,64.0C375.5,119.9 355.3,250.8 365.4,317.0" stroke="#000000" fill="none" style="stroke-width: 2;"></path><g class="actor"><path d="M466.265625,20C515.1,23.9 518.9,16.1 563.3,20.0C561.5,45.9 565.1,52.7 563.3,64.0C519.5,67.9 495.4,60.1 466.3,64.0C464.5,43.5 468.0,48.9 466.3,20.0" stroke="#000000" fill="#ffffff" style="stroke-width: 2;"></path><text x="476.265625" y="45" style="font-size: 16px; font-family: danielbd;"><tspan x="476.265625">initializing</tspan></text></g><g class="actor"><path d="M466.265625,317C506.1,320.9 533.9,313.1 563.3,317.0C561.5,327.7 565.1,333.3 563.3,361.0C542.3,357.1 505.4,364.9 466.3,361.0C468.0,343.2 464.5,340.3 466.3,317.0" stroke="#000000" fill="#ffffff" style="stroke-width: 2;"></path><text x="476.265625" y="342" style="font-size: 16px; font-family: danielbd;"><tspan x="476.265625">initializing</tspan></text></g><path d="M514.8,64.0C504.7,276.5 524.9,171.8 514.8,317.0" stroke="#000000" fill="none" style="stroke-width: 2;"></path><g class="actor"><path d="M621.21875,20C711.9,24.3 656.7,15.7 729.2,20.0C727.5,30.6 731.0,51.5 729.2,64.0C647.1,68.3 638.5,59.7 621.2,64.0C623.0,49.6 619.5,30.6 621.2,20.0" stroke="#000000" fill="#ffffff" style="stroke-width: 2;"></path><text x="632.21875" y="47.5" style="font-size: 16px; font-family: danielbd;"><tspan x="631.21875">create vm</tspan></text></g><g class="actor"><path d="M621.21875,317C711.9,321.3 641.8,312.7 729.2,317.0C727.5,346.4 731.0,354.0 729.2,361.0C711.9,365.3 679.5,356.7 621.2,361.0C623.0,347.2 619.5,324.0 621.2,317.0" stroke="#000000" fill="#ffffff" style="stroke-width: 2;"></path><text x="632.21875" y="344.5" style="font-size: 16px; font-family: danielbd;"><tspan x="631.21875">create vm</tspan></text></g><path d="M675.2,64.0C665.1,104.5 685.3,124.7 675.2,317.0" stroke="#000000" fill="none" style="stroke-width: 2;"></path><g class="actor"><path d="M813.1640625,20C838.3,24.2 887.8,15.8 918.1,20.0C916.3,27.0 919.8,57.0 918.1,64.0C829.9,59.8 867.2,68.2 813.2,64.0C811.4,27.0 814.9,52.0 813.2,20.0" stroke="#000000" fill="#ffffff" style="stroke-width: 2;"></path><text x="824.1640625" y="48" style="font-size: 16px; font-family: danielbd;"><tspan x="823.1640625">delete vm</tspan></text></g><g class="actor"><path d="M813.1640625,317C849.8,321.2 838.3,312.8 918.1,317.0C916.3,333.1 919.8,331.1 918.1,361.0C865.7,356.8 886.9,365.2 813.2,361.0C814.9,350.4 811.4,327.6 813.2,317.0" stroke="#000000" fill="#ffffff" style="stroke-width: 2;"></path><text x="824.1640625" y="345" style="font-size: 16px; font-family: danielbd;"><tspan x="823.1640625">delete vm</tspan></text></g><path d="M865.6,64.0C875.7,276.5 855.5,183.2 865.6,317.0" stroke="#000000" fill="none" style="stroke-width: 2;"></path><g class="actor"><path d="M938.0546875,20C980.7,22.0 946.2,18.0 988.9,20.0C990.6,27.0 987.1,41.7 988.9,64.0C976.7,66.0 973.0,62.0 938.1,64.0C939.8,39.3 936.3,38.9 938.1,20.0" stroke="#000000" fill="#ffffff" style="stroke-width: 2;"></path><text x="949.0546875" y="48" style="font-size: 16px; font-family: danielbd;"><tspan x="948.0546875">end</tspan></text></g><g class="actor"><path d="M938.0546875,317C970.8,315.0 971.8,319.0 988.9,317.0C990.6,327.6 987.1,344.9 988.9,361.0C980.7,359.0 976.7,363.0 938.1,361.0C936.3,354.0 939.8,342.4 938.1,317.0" stroke="#000000" fill="#ffffff" style="stroke-width: 2;"></path><text x="949.0546875" y="345" style="font-size: 16px; font-family: danielbd;"><tspan x="948.0546875">end</tspan></text></g><path d="M963.5,64.0C973.6,230.4 953.3,276.5 963.5,317.0" stroke="#000000" fill="none" style="stroke-width: 2;"></path><g class="signal"><text x="54.984375" y="92" style="font-size: 16px; font-family: danielbd;"><tspan x="53.984375">write config files</tspan></text><path d="M44.0,108.0C84.1,114.7 100.8,101.3 211.0,108.0" stroke="#000000" fill="none" style="stroke-width: 2; marker-end: url(&quot;#markerArrowBlock&quot;);"></path></g><g class="signal"><text x="221.984375" y="136" style="font-size: 16px; font-family: danielbd;"><tspan x="220.984375">config provider</tspan></text><path d="M211.0,152.0C280.5,145.8 340.7,158.2 365.4,152.0" stroke="#000000" fill="none" style="stroke-width: 2; marker-end: url(&quot;#markerArrowBlock&quot;);"></path></g><g class="signal"><text x="377.390625" y="182.5" style="font-size: 16px; font-family: danielbd;"><tspan x="375.390625">terrafrom init</tspan></text><path d="M365.4,189.0C401.2,183.0 389.3,195.0 514.8,189.0" stroke="#000000" fill="none" style="stroke-width: 2; marker-end: url(&quot;#markerArrowBlock&quot;);"></path></g><g class="signal"><text x="526.78125" y="217" style="font-size: 16px; font-family: danielbd;"><tspan x="524.78125">terrfrom apply</tspan></text><path d="M514.8,233.0C553.3,226.6 573.2,239.4 675.2,233.0" stroke="#000000" fill="none" style="stroke-width: 2; marker-end: url(&quot;#markerArrowBlock&quot;);"></path></g><g class="signal"><text x="687.21875" y="261" style="font-size: 16px; font-family: danielbd;"><tspan x="685.21875">terrafrom destroy</tspan></text><path d="M675.2,277.0C705.7,269.4 835.1,284.6 865.6,277.0" stroke="#000000" fill="none" style="stroke-width: 2; marker-end: url(&quot;#markerArrowBlock&quot;);"></path></g><g class="signal"><text x="914.53125" y="302" style="font-size: 16px; font-family: danielbd;"><tspan x="914.53125"></tspan></text><path d="M865.6,297.0C915.6,293.1 947.8,300.9 963.5,297.0" stroke="#000000" fill="none" style="stroke-width: 2; marker-end: url(&quot;#markerArrowBlock&quot;);"></path></g></svg>