<?xml version="1.0" encoding="utf-8" standalone="no"?><!DOCTYPE svg PUBLIC "-//W3C//DTD SVG 20010904//EN" "http://www.w3.org/TR/2001/REC-SVG-20010904/DTD/svg10.dtd"><svg xmlns="http://www.w3.org/2000/svg" width="470" height="190" xmlns:xlink="http://www.w3.org/1999/xlink"><source><![CDATA[MachineDeployment->MachineSet:
MachineSet->Machine:
]]></source><desc></desc><defs><marker viewBox="0 0 5 5" markerWidth="5" markerHeight="5" orient="auto" refX="5" refY="2.5" id="markerArrowBlock"><path d="M 0 0 L 5 2.5 L 0 5 z"></path></marker><marker viewBox="0 0 9.6 16" markerWidth="4" markerHeight="16" orient="auto" refX="9.6" refY="8" id="markerArrowOpen"><path d="M 9.6,8 1.92,16 0,13.7 5.76,8 0,2.286 1.92,0 9.6,8 z"></path></marker></defs><g class="title"></g><g class="actor"><path d="M10,20C40.3,27.6 152.6,12.4 199.4,20.0C197.6,33.4 201.2,54.2 199.4,65.0C116.5,72.6 118.2,57.4 10.0,65.0C8.2,27.2 11.8,57.8 10.0,20.0" stroke="#000000" fill="#ffffff" style="stroke-width: 2;"></path><text x="21" y="46" style="font-size: 16px; font-family: danielbd;"><tspan x="20">MachineDeployment</tspan></text></g><g class="actor"><path d="M10,125C105.3,132.6 89.9,117.4 199.4,125.0C197.6,154.4 201.2,153.6 199.4,170.0C82.9,162.4 103.3,177.6 10.0,170.0C11.8,136.4 8.2,132.2 10.0,125.0" stroke="#000000" fill="#ffffff" style="stroke-width: 2;"></path><text x="21" y="151" style="font-size: 16px; font-family: danielbd;"><tspan x="20">MachineDeployment</tspan></text></g><path d="M104.7,65.0C102.3,102.9 107.1,79.4 104.7,125.0" stroke="#000000" fill="none" style="stroke-width: 2;"></path><g class="actor"><path d="M219.421875,20C307.2,24.6 306.6,15.4 334.1,20.0C332.3,30.8 335.9,34.8 334.1,65.0C247.0,60.4 289.9,69.6 219.4,65.0C217.6,48.2 221.2,43.3 219.4,20.0" stroke="#000000" fill="#ffffff" style="stroke-width: 2;"></path><text x="230.421875" y="49" style="font-size: 16px; font-family: danielbd;"><tspan x="229.421875">MachineSet</tspan></text></g><g class="actor"><path d="M219.421875,125C247.8,129.6 315.8,120.4 334.1,125.0C332.3,152.5 335.9,135.8 334.1,170.0C265.9,174.6 247.0,165.4 219.4,170.0C221.2,148.7 217.6,143.6 219.4,125.0" stroke="#000000" fill="#ffffff" style="stroke-width: 2;"></path><text x="230.421875" y="154" style="font-size: 16px; font-family: danielbd;"><tspan x="229.421875">MachineSet</tspan></text></g><path d="M276.8,65.0C274.4,79.4 279.2,96.5 276.8,125.0" stroke="#000000" fill="none" style="stroke-width: 2;"></path><g class="actor"><path d="M354.125,20C414.0,16.6 393.0,23.4 440.2,20.0C438.4,53.6 442.0,44.4 440.2,65.0C399.6,68.4 399.9,61.6 354.1,65.0C352.3,57.8 355.9,30.8 354.1,20.0" stroke="#000000" fill="#ffffff" style="stroke-width: 2;"></path><text x="365.125" y="49" style="font-size: 16px; font-family: danielbd;"><tspan x="364.125">Machine</tspan></text></g><g class="actor"><path d="M354.125,125C374.8,121.6 382.7,128.4 440.2,125.0C442.0,162.8 438.4,132.2 440.2,170.0C426.4,173.4 419.5,166.6 354.1,170.0C355.9,146.4 352.3,162.8 354.1,125.0" stroke="#000000" fill="#ffffff" style="stroke-width: 2;"></path><text x="365.125" y="154" style="font-size: 16px; font-family: danielbd;"><tspan x="364.125">Machine</tspan></text></g><path d="M397.1,65.0C399.5,94.1 394.7,115.4 397.1,125.0" stroke="#000000" fill="none" style="stroke-width: 2;"></path><g class="signal"><text x="190.7421875" y="90" style="font-size: 16px; font-family: danielbd;"><tspan x="190.7421875"></tspan></text><path d="M104.7,85.0C132.2,78.1 249.2,91.9 276.8,85.0" stroke="#000000" fill="none" style="stroke-width: 2; marker-end: url(&quot;#markerArrowBlock&quot;);"></path></g><g class="signal"><text x="336.9609375" y="110" style="font-size: 16px; font-family: danielbd;"><tspan x="336.9609375"></tspan></text><path d="M276.8,105.0C368.3,100.2 359.9,109.8 397.1,105.0" stroke="#000000" fill="none" style="stroke-width: 2; marker-end: url(&quot;#markerArrowBlock&quot;);"></path></g></svg>